<svg height="50pt"
     viewBox="0 -1 480.00011 480"
     width="50pt"
     fill="#7fffd4"
     xmlns="http://www.w3.org/2000/svg">
    <path d="m297.601562 71.28125c-15.792968-26.324219-35.179687-50.3125-57.601562-71.28125-22.421875 20.96875-41.808594 44.957031-57.601562 71.28125zm0 0"/><path d="m173.488281 87.28125c-10.710937 20.371094-19.222656 41.828125-25.398437 64h183.820312c-6.175781-22.171875-14.6875-43.628906-25.398437-64zm0 0"/><path d="m348.542969 151.28125h114.722656c-9.136719-23.15625-21.824219-44.746094-37.601563-64h-101.175781c10.140625 20.472656 18.199219 41.914062 24.054688 64zm0 0"/><path d="m324.488281 391.28125h101.199219c15.777344-19.253906 28.464844-40.847656 37.601562-64h-114.746093c-5.855469 22.082031-13.914063 43.523438-24.054688 64zm0 0"/><path d="m155.511719 87.28125h-101.214844c-15.78125 19.25-28.464844 40.84375-37.601563 64h114.761719c5.855469-22.085938 13.914063-43.527344 24.054688-64zm0 0"/><path d="m411.296875 71.28125c-39.546875-40.441406-92.148437-65.554688-148.457031-70.890625 20.6875 21.25 38.554687 45.078125 53.160156 70.890625zm0 0"/><path d="m68.679688 407.28125c39.554687 40.441406 92.160156 65.558594 148.480468 70.886719-20.6875-21.25-38.554687-45.074219-53.160156-70.886719zm0 0"/><path d="m262.839844 478.167969c56.308594-5.332031 108.910156-30.449219 148.457031-70.886719h-95.296875c-14.605469 25.8125-32.472656 49.636719-53.160156 70.886719zm0 0"/><path d="m131.457031 327.28125h-114.730469c9.136719 23.152344 21.824219 44.746094 37.601563 64h101.183594c-10.140625-20.476562-18.199219-41.917969-24.054688-64zm0 0"/><path d="m217.160156.390625c-56.320312 5.328125-108.925781 30.445313-148.480468 70.890625h95.320312c14.605469-25.8125 32.472656-49.640625 53.160156-70.890625zm0 0"/><path d="m306.511719 391.28125c10.710937-20.375 19.222656-41.828125 25.398437-64h-183.820312c6.175781 22.171875 14.6875 43.625 25.398437 64zm0 0"/><path d="m182.398438 407.28125c15.792968 26.320312 35.179687 50.3125 57.601562 71.277344 22.421875-20.964844 41.808594-44.957032 57.601562-71.277344zm0 0"/><path d="m468.992188 167.28125h-457.984376c-14.675781 46.875-14.675781 97.121094 0 144h457.984376c14.675781-46.878906 14.675781-97.125 0-144zm-341.273438 114.101562c-.9375 3.445313-4.042969 5.851563-7.613281 5.898438h-.105469c-3.535156 0-6.648438-2.320312-7.664062-5.707031l-16.335938-54.453125-16.335938 54.453125c-1.015624 3.386719-4.128906 5.707031-7.664062 5.707031h-.105469c-3.566406-.046875-6.675781-2.453125-7.613281-5.898438l-24-88 15.4375-4.207031 16.648438 61.039063 16-53.230469c1.015624-3.386719 4.128906-5.707031 7.664062-5.707031s6.652344 2.320312 7.664062 5.707031l16 53.230469 16.648438-61.039063 15.441406 4.207031zm144 0c-.9375 3.445313-4.042969 5.851563-7.613281 5.898438h-.105469c-3.535156 0-6.648438-2.320312-7.664062-5.707031l-16.335938-54.453125-16.335938 54.453125c-1.015624 3.386719-4.128906 5.707031-7.664062 5.707031h-.105469c-3.566406-.046875-6.675781-2.453125-7.613281-5.898438l-24-88 15.4375-4.207031 16.648438 61.039063 16-53.230469c1.015624-3.386719 4.128906-5.707031 7.664062-5.707031s6.652344 2.320312 7.664062 5.707031l16 53.230469 16.648438-61.039063 15.441406 4.207031zm144 0c-.9375 3.445313-4.042969 5.851563-7.613281 5.898438h-.105469c-3.535156 0-6.648438-2.320312-7.664062-5.707031l-16.335938-54.453125-16.335938 54.453125c-1.015624 3.386719-4.128906 5.707031-7.664062 5.707031h-.105469c-3.566406-.046875-6.675781-2.453125-7.613281-5.898438l-24-88 15.4375-4.207031 16.648438 61.039063 16-53.230469c1.015624-3.386719 4.128906-5.707031 7.664062-5.707031s6.652344 2.320312 7.664062 5.707031l16 53.230469 16.648438-61.039063 15.441406 4.207031zm0 0"/>
</svg>