<svg
    xmlns="http://www.w3.org/2000/svg"
    width="83"
    height="22"
    viewBox="0 0 83 22"
    fill="none">
    <style>svg { background-color: red; }</style>
    <path d="M60.2738 1.41675H57.6934V20.6059H60.2738V1.41675Z" fill="white"></path>
    <path d="M23.8379 1.41602C18.6607 1.41602 14.4492 5.71806 14.4492 11.0066C14.4492 16.2952 18.6607 20.5973 23.8379 20.5973C29.0151 20.5973 33.2266 16.2952 33.2266 11.0066C33.2266 5.71806 29.0151 1.41602 23.8379 1.41602ZM23.8379 17.8738C20.1316 17.8738 17.1153 14.7927 17.1153 11.0066C17.1153 7.22059 20.1316 4.13945 23.8379 4.13945C27.546 4.13945 30.5605 7.22059 30.5605 11.0066C30.5605 14.7927 27.5443 17.8738 23.8379 17.8738Z"
          fill="white"></path>
    <path d="M54.7327 9.69214H46.6111C46.5289 10.1207 46.4844 10.5623 46.4844 11.0145C46.4844 11.4667 46.5289 11.9092 46.6111 12.3369H54.7327C54.8148 11.9083 54.8594 11.4667 54.8594 11.0145C54.8594 10.5623 54.8148 10.1207 54.7327 9.69214Z"
          fill="#00BFD6"></path>
    <path d="M51.075 14.7856C50.5681 15.5544 49.9114 16.2042 49.1118 16.7245C48.1255 17.3665 47.0279 17.7207 45.8515 17.7767C44.6734 17.8326 43.509 17.558 42.39 16.9616C41.7137 16.6012 41.1272 16.1596 40.6315 15.6462C40.301 15.2727 40.0039 14.8582 39.7436 14.3973C39.2256 13.4825 38.9251 12.5301 38.8395 11.5575C38.8335 11.4526 38.8258 11.3468 38.825 11.2418C38.8078 10.0699 39.087 8.92856 39.6572 7.85196C40.003 7.19865 40.426 6.62318 40.9191 6.12816C41.3044 5.76696 41.7316 5.44424 42.2051 5.167C43.2565 4.55218 44.3746 4.23295 45.5279 4.21634C45.7933 4.21284 46.0553 4.21984 46.3138 4.25569C47.8104 4.46472 48.5621 4.94399 48.807 5.08567C49.6263 5.56494 50.3284 6.22087 50.8995 7.0421C51.5399 6.67915 52.5929 6.0582 53.2462 5.65939C52.4072 4.37464 51.3635 3.36362 50.134 2.64647C49.3755 2.20306 48.581 1.88034 47.759 1.67831C47.0972 1.51652 46.4166 1.43431 45.7222 1.43168C45.5142 1.42556 45.307 1.42643 45.0989 1.43518C44.2197 1.47191 43.3729 1.62934 42.5664 1.9057C41.8686 2.14446 41.1666 2.45756 40.5322 2.87299C39.9491 3.2543 39.408 3.6706 38.92 4.17261C38.2984 4.76907 37.807 5.44949 37.3643 6.19463C36.5253 7.60795 36.0869 9.20318 36.0724 10.8684C36.0715 11.0241 36.075 11.1806 36.0818 11.3345C36.0818 11.3459 36.0818 11.3555 36.0818 11.3669C36.1058 13.0128 36.5544 14.5635 37.4131 15.9742C37.8301 16.6598 38.3378 17.2808 38.9311 17.8379C39.5193 18.4501 40.176 18.9678 40.8943 19.3833C42.3207 20.2071 43.8703 20.6155 45.5013 20.5972C46.3481 20.5876 47.1469 20.4712 47.9448 20.236C48.8609 19.9893 49.7308 19.601 50.5467 19.0693C51.7359 18.2962 52.6563 17.3507 53.4679 16.0581C52.7779 15.6908 51.7334 15.1337 51.075 14.7856Z"
          fill="white"></path>
    <path d="M79.8557 16.7734L74.1126 10.9067C73.7581 11.1499 73.4208 11.4306 73.1075 11.7507C72.7941 12.0708 72.5193 12.4154 72.2812 12.7775L78.0244 18.6441C78.3789 18.401 78.7162 18.1203 79.0295 17.8002C79.3429 17.4801 79.6177 17.1355 79.8557 16.7734Z"
          fill="#00BFD6"></path>
    <path d="M73.7421 17.7328C72.8517 17.9104 71.9382 17.8955 71.0118 17.6856C69.8697 17.4267 68.8483 16.8845 67.9784 16.0738C67.1068 15.2621 66.4741 14.2266 66.0949 12.997C65.8663 12.2545 65.7567 11.5172 65.7618 10.7966C65.7875 10.2937 65.8637 9.78642 65.9981 9.27216C66.2652 8.25153 66.7121 7.36034 67.3252 6.61082C67.3937 6.53211 67.4613 6.45253 67.5332 6.37731C68.332 5.53597 69.3192 4.93076 70.4681 4.5818C71.1651 4.36928 71.862 4.26783 72.5538 4.27395C73.076 4.29669 73.6017 4.37715 74.1291 4.52321C75.2978 4.84768 76.3097 5.42927 77.1368 6.25137C77.3269 6.44028 77.5075 6.63531 77.665 6.84696C78.5786 8.07574 78.7789 8.95732 78.8534 9.23543C79.1017 10.166 79.1436 11.1368 78.9784 12.1303C79.6822 12.3367 80.8568 12.6577 81.5948 12.8483C81.8902 11.3335 81.8525 9.86513 81.4801 8.4693C81.2498 7.60784 80.9125 6.80586 80.4707 6.06946C80.1154 5.47737 79.6907 4.92726 79.201 4.42438C79.058 4.26958 78.9108 4.1209 78.7575 3.9766C78.1103 3.36789 77.4022 2.86763 76.6411 2.48019C75.9818 2.14523 75.2695 1.85924 74.5332 1.69482C73.8568 1.54265 73.1865 1.44644 72.4938 1.44994C71.6419 1.42283 70.8226 1.54877 69.9947 1.75604C68.4228 2.14873 67.0092 2.96034 65.8457 4.1279C65.737 4.23722 65.6317 4.35004 65.5298 4.46461C65.5221 4.47248 65.5152 4.47948 65.5075 4.48735C64.3851 5.6689 63.6291 7.08922 63.2601 8.70719C63.0803 9.49256 63.0092 10.2989 63.0435 11.121C63.0358 11.979 63.142 12.8195 63.362 13.6319C63.8003 15.2447 64.6128 16.6527 65.7789 17.8177C66.3842 18.422 67.0298 18.917 67.7567 19.3272C68.5752 19.8143 69.4587 20.1677 70.4039 20.381C71.7798 20.6933 73.0854 20.6898 74.5538 20.3618C74.32 19.6018 73.9673 18.4544 73.7421 17.7328Z"
          fill="white"></path>
    <path d="M3.99039 17.9525V1.42651H1.4082V20.55H1.40906V20.5903H11.6762V17.9525H3.99039Z" fill="white"></path>
</svg>